<svg width="40" height="40" viewBox="0 0 40 40" fill="none" xmlns="http://www.w3.org/2000/svg">
  <rect width="40" height="40"/>
  <path d="M32.2152 18.3171C33.3227 18.1051 34.426 18.6998 34.8221 19.7222C35.257 20.7308 34.8721 21.8951 33.9131 22.4729L30.4907 24.6159C30.0976 24.8651 29.6381 24.9986 29.1681 25C28.7599 24.9989 28.3585 24.8987 28.0007 24.7088C27.2097 24.3021 26.718 23.504 26.7246 22.6376V15.6879C26.7246 15.308 27.043 15 27.4358 15C27.6247 14.9998 27.8058 15.0721 27.9395 15.2012C28.0731 15.3302 28.1483 15.5053 28.1484 15.6879V22.6376C28.1458 22.9981 28.3508 23.33 28.6802 23.4986C29.0063 23.6732 29.4057 23.6583 29.7169 23.46L33.1393 21.3169C33.526 21.0935 33.6804 20.6267 33.4995 20.2277C33.3497 19.8167 32.9066 19.5779 32.4663 19.671L30.1349 20.0765C29.7483 20.1435 29.3787 19.8948 29.3093 19.521C29.2401 19.1471 29.4972 18.7897 29.8837 18.7226L32.2152 18.3171Z" fill="white"/>
  <path d="M20.4739 18.7246L22.8489 18.3193L22.852 18.3197C23.9801 18.1083 25.1036 18.7026 25.5076 19.7243C25.951 20.7331 25.5572 21.8982 24.5781 22.4739L21.0922 24.6161C20.6918 24.8652 20.2237 24.9986 19.745 25C19.3293 24.9988 18.9205 24.8988 18.5561 24.7089C17.7514 24.3018 17.2515 23.504 17.2589 22.6385V17.3616C17.262 17.0012 17.0539 16.669 16.7189 16.4992C16.3868 16.3246 15.9799 16.3395 15.6629 16.5379L6.89592 21.9287C6.50143 22.1517 6.34359 22.6186 6.52768 23.0178C6.68033 23.4288 7.13164 23.6674 7.58017 23.5744L15.2371 22.2681C15.6309 22.2011 16.0073 22.4497 16.078 22.8234C16.1486 23.1971 15.8867 23.5543 15.4929 23.6214L7.83599 24.9278C6.7079 25.1393 5.58421 24.5449 5.18041 23.5231C4.73862 22.515 5.13109 21.3516 6.10765 20.7744L14.8751 15.384C15.6363 14.9075 16.6136 14.8719 17.4111 15.2916C18.216 15.6987 18.7159 16.4965 18.7084 17.362V22.6373C18.7049 22.9977 18.9131 23.33 19.2484 23.4992C19.5805 23.6737 19.9874 23.6589 20.3044 23.4606L23.7903 21.3184C24.1844 21.0952 24.3418 20.6285 24.1577 20.2296C24.005 19.8184 23.5535 19.5796 23.1047 19.6726L20.7297 20.078C20.336 20.145 19.9595 19.8964 19.8888 19.5227C19.8182 19.149 20.0802 18.7917 20.4739 18.7246Z" fill="white"/>
</svg>
